# xmcd
#
# Track frame offsets: 
#        150
#        22230
#        43307
#        67164
#        87376
#        115404
#        141059
#
# Disc length: 2204 seconds
#
# Revision: 0
# Processed by: cddbd v1.5.2PL0 Copyright (c) Steve Scherf et al.
# Submitted via: ExactAudioCopy v0.99pb4
#
DISCID=6b089a07
DTITLE=Le Hieu - Da khuc duong cam
DYEAR=2008
DGENRE=Country
TTITLE0=Toi ru em ngu_Le Hieu (Trinh Cong Son)
TTITLE1=Chieu nay khong co em_Le Hieu (Ngo Thuy Mien)
TTITLE2=Em ve tinh khoi_Le Hieu (Quoc Bao)
TTITLE3=Cho em ngay gio xanh_Le Hieu (Quoc Bao-Quoc Dung)
TTITLE4=Tua dong song_Le Hieu (Vincent Nguyen-Dinh Nguyen)
TTITLE5=Buon oi Chao mi_Le Hieu (Nguyen Anh 9)
TTITLE6=Mua hong_Le Hieu (Trinh Cong Son)
EXTD=
EXTT0=
EXTT1=
EXTT2=
EXTT3=
EXTT4=
EXTT5=
EXTT6=
PLAYORDER=
